<svg xmlns="http://www.w3.org/2000/svg" viewBox="0 0 64 64" width="64" height="64" aria-label="Passion8">
  <defs>
    <linearGradient id="p8g" x1="10%" y1="8%" x2="90%" y2="92%">
      <stop offset="0%" stop-color="#FFB07A"/>
      <stop offset="55%" stop-color="#F37021"/>
      <stop offset="100%" stop-color="#E55A0E"/>
    </linearGradient>
  </defs>
  <rect x="8" y="8" width="48" height="48" rx="16" fill="#FFF5EC"/>
  <path d="M18 22C18 14 30 14 32 27C34 14 46 14 46 22C46 32 34 33 32 27C30 33 18 32 18 22Z" fill="none" stroke="url(#p8g)" stroke-width="5.5" stroke-linecap="round" stroke-linejoin="round"/>
  <path d="M18 42C18 32 30 31 32 37C34 31 46 32 46 42C46 51 34 52 32 39C30 52 18 51 18 42Z" fill="none" stroke="url(#p8g)" stroke-width="5.5" stroke-linecap="round" stroke-linejoin="round"/>
  <circle cx="48" cy="15" r="2.2" fill="#F37021"/>
  <circle cx="17" cy="51" r="1.7" fill="#FFB07A"/>
</svg>
